<svg id="Layer_2" data-name="Layer 2" xmlns="http://www.w3.org/2000/svg" viewBox="0 0 378.96 460.97"><defs><style>.cls-1{fill:#293c89;}.cls-2{fill:#e3feff;opacity:0.04;}.cls-3{fill:#fff800;}</style></defs><g id="Back"><path class="cls-1" d="M1213.48-448.14l0,0-.11.11-.1.1-.53.55a1.53,1.53,0,0,0-.18.18c-.5.49-1.19,1.16-2,2l-.67.62c-1.18,1.08-2.62,2.35-4.28,3.71-.33.28-.68.56-1,.85-.56.45-1.15.91-1.76,1.38s-1,.77-1.52,1.15-.79.59-1.2.88c-.86.62-1.75,1.24-2.68,1.86s-1.68,1.11-2.56,1.65c-2.14,1.33-4.41,2.62-6.79,3.8l-1,.49c-.91.44-1.84.85-2.79,1.25-.51.22-1,.43-1.55.63-.14.05-.27.11-.41.15h0c-2.65,1-5.22,1.85-7.68,2.53a78.07,78.07,0,0,1-23.73,3.1l-2.3-4.84-4-8.36-9.65-20.31-2.41-5.07s-2.89,95.47-2.89,144.65c0,24.56,2.64,60.66,5.3,90.65s5.31,54,5.31,54-1.78.48-5.31,1.26c-2.31.52-5.36,1.16-9.15,1.88q-2.64.49-5.75,1c-3.53.62-7.52,1.27-12,1.92q-4.29.65-9.13,1.28c-3.05.4-6.25.8-9.63,1.18q-4.62.54-9.65,1.05c-9,.9-19,1.72-30,2.38q-4.69.28-9.64.52-4.48.22-9.16.39-11.71.45-24.65.6l-2.2,0c-3.67,0-7.2,0-10.6,0s-6.56-.1-9.64-.18c-11.68-.34-21.59-1.05-30-2-3.47-.39-6.68-.82-9.65-1.27-3.34-.52-6.38-1.07-9.15-1.65l-2.51-.54c-1.27-.29-2.47-.58-3.61-.88l-1.34-.35c-1-.27-1.93-.54-2.83-.81-2.44-.75-4.54-1.49-6.35-2.21-1-.39-1.84-.77-2.64-1.15s-1.53-.74-2.18-1.09a29.68,29.68,0,0,1-2.83-1.72,13.3,13.3,0,0,1-2.56-2.22,2.62,2.62,0,0,1-.26-.34l.26-1.85c.8-5.72,3.28-24.18,5.67-48,.1-1,.2-2,.29-3.09.34-3.42.67-6.94,1-10.54.1-1.13.2-2.28.3-3.44,1.18-13.69,2.21-28.43,2.83-43.13.05-1.06.1-2.13.13-3.19s.09-2.27.13-3.4c.05-1.42.09-2.87.14-4.35,0-1.06.05-2.14.08-3.23q0-2,.09-4.14c0-1.09,0-2.19,0-3.3.2-12.46.22-26.42.12-40.71,0-1.09,0-2.18,0-3.28,0-2.65,0-5.31-.08-8,0-1.1,0-2.2,0-3.29,0-1.4,0-2.8,0-4.2,0-1.08,0-2.17,0-3.25-.24-16.76-.59-33.12-.94-47.21,0-1.12-.06-2.23-.08-3.32,0-.27,0-.53,0-.8-.09-3.71-.19-7.24-.28-10.54,0-.87-.05-1.73-.08-2.57,0-1.1,0-2.17-.09-3.22-.39-13.74-.69-22.42-.69-22.42l-8.41,16.41-7.66,14.94-2.95,5.75-.26.51s-3.88-.88-9.38-2.19c-6-1.44-14-3.39-20.93-5.26h0l-1.41-.38c-1-.28-2-.56-3-.84-.39-.11-.77-.23-1.16-.36l-.84-.29c-.89-.32-1.77-.69-2.66-1.1a.09.09,0,0,1-.06,0c-.35-.15-.69-.32-1-.49l-.21-.1-1.18-.61c-.36-.19-.72-.38-1.07-.58-.65-.36-1.29-.74-1.92-1.13l-1.13-.71c-1-.66-2.05-1.35-3-2.05-2.25-1.61-4.35-3.28-6.18-4.84l-.91-.78-.44-.38L839-443.77c-1.92-1.75-3.33-3.16-4-3.87l-.17-.17-.31-.33s1.11-2.85,3-7.71l1.47-3.71c2.36-5.95,5.53-13.84,9.16-22.72,3-7.24,6.23-15.13,9.64-23.18,1.34-3.16,2.69-6.34,4.06-9.51.94-2.18,1.89-4.36,2.83-6.53l.2-.44h0c.64-1.47,1.28-2.92,1.93-4.38,7.7-17.41,15.31-33.43,21-42.7a33.71,33.71,0,0,1,5.52-7.36,34.54,34.54,0,0,1,4.12-2.88c2.79-1.72,6.45-3.69,10.61-5.77,8-4,17.75-8.44,26.85-12.41,3.17-1.38,6.25-2.71,9.15-3.94,3.58-1.53,6.87-2.91,9.65-4.07,5.51-2.29,9-3.72,9-3.72l2.87-2.59,6.77-6.09h0l.08,0,.15,0,.47.17,1.22.41,1.13.36,0,0,.9.29.53.16,1,.3c.83.25,1.75.51,2.75.79l2,.53,1,.27,1.07.27,1.27.32,1.48.35,1.06.24,1.66.37.94.2,2.16.43.8.16c2.21.43,4.56.83,7,1.19.91.14,1.83.27,2.77.39h0l1.14.15,2.37.28,1.13.12c2.14.22,4.35.4,6.6.54l2,.11,2.06.08.74,0,1.6,0,2.36,0h2.35l.82,0c.69,0,1.38,0,2-.06l1.59-.06.46,0q.76,0,1.5-.09l.7,0,1.41-.1.55,0,.76-.06c1.29-.11,2.55-.24,3.78-.38s2.57-.32,3.81-.49l1.19-.18c1.61-.24,3.16-.5,4.64-.78,4.61-.86,8.61-1.85,11.89-2.79l2-.58a83.17,83.17,0,0,0,8.11-2.89l.1-.05h0l7.88,7,.8.71h0l.23.07.2.07,0,0,.52.18,1.58.55,6.23,2.19c2.77,1,6,2.12,9.63,3.4,8.19,2.93,18,6.47,26.85,9.86,3.21,1.22,6.3,2.41,9.15,3.55,3.69,1.47,7,2.84,9.65,4,1.61.72,3,1.37,4.06,1.94l.28.15c.88.47,1.73,1,2.55,1.53s1.48,1,2.18,1.56c.92.7,1.8,1.44,2.64,2.2,1.25,1.15,2.41,2.34,3.48,3.52.66.74,1.28,1.48,1.85,2.2a55.82,55.82,0,0,1,6.58,10.21l6.38,16.15,9.64,24.41,10.6,26.84,2.56,6.48.4,1,.51,1.27.47,1.2,11.71,29.65Z" transform="translate(-834.52 617.86)"/><path class="cls-2" d="M837.55-455.85c-1.92,4.86-3,7.71-3,7.71l.31.33.17.17c.69.71,2.1,2.12,4,3.87v-15.79Z" transform="translate(-834.52 617.86)"/><path class="cls-2" d="M857.82-505.46v74.85a58.29,58.29,0,0,1-9.64-5.7v-46C851.14-489.52,854.41-497.41,857.82-505.46Z" transform="translate(-834.52 617.86)"/><path class="cls-2" d="M897.46-579.27v158.58l-.26.51s-3.88-.88-9.38-2.19V-569a33.71,33.71,0,0,1,5.52-7.36A34.54,34.54,0,0,1,897.46-579.27Z" transform="translate(-834.52 617.86)"/><polygon class="cls-2" points="44.19 158.13 44.19 168.52 41.36 170.16 41.36 163.03 38.24 164.83 35.01 162.96 35.01 170.1 32.37 168.51 32.37 158.17 33.21 158.66 35.01 159.69 38.24 161.56 41.36 159.76 43.34 158.61 44.19 158.13"/><polygon class="cls-2" points="49.14 158.61 49.14 169.72 38.25 176.01 27.42 169.75 30.41 168.21 38.25 172.74 46.31 168.09 46.31 160.07 49.14 158.61"/><polygon class="cls-2" points="49.08 157.11 46.09 158.65 38.25 154.13 30.19 158.78 30.19 166.8 27.36 168.25 27.36 157.15 38.25 150.86 49.08 157.11"/><polygon class="cls-2" points="49.14 95.86 49.14 106.97 38.25 113.26 27.42 107 30.41 105.46 38.25 109.99 46.31 105.33 46.31 97.31 49.14 95.86"/><polygon class="cls-2" points="44.19 95.37 44.19 105.77 41.36 107.41 41.36 100.28 38.24 102.08 35.01 100.21 35.01 107.35 32.37 105.76 32.37 95.42 33.21 95.91 35.01 96.94 38.24 98.81 41.36 97.01 43.34 95.86 44.19 95.37"/><polygon class="cls-2" points="49.08 94.36 46.09 95.9 38.25 91.38 30.19 96.03 30.19 104.05 27.36 105.5 27.36 94.39 38.25 88.11 49.08 94.36"/><path class="cls-2" d="M921.51-167.14,918.28-169v2.21c1.81.72,3.91,1.46,6.35,2.21v-4.35ZM908.07-585v143.66l8.41-16.41s.3,8.68.69,22.42l4.35-2.51,10.83,6.25-3,1.54-7.84-4.52-4.26,2.46c0,.84.06,1.7.08,2.57l.94.54,3.23,1.86,3.12-1.8,2-1.15.85-.48v10.4l-2.83,1.63v-7.13l-3.12,1.8-3.23-1.87v7.14l-.66-.4c0,.27,0,.53,0,.8l3.88,2.24,8.06-4.65v-8l2.83-1.45V-419l-10.89,6.29-3.8-2.19c.35,14.09.7,30.45.94,47.21l2.86-1.65,10.83,6.25-3,1.54-7.84-4.52-2.82,1.63c0,1.4,0,2.8,0,4.2l2.76,1.6,3.12-1.8,2-1.15.85-.49v10.4l-2.83,1.64v-7.13l-3.12,1.8L918.79-357c0,2.65.05,5.31.08,8l2.65,1.53,8.06-4.66v-8l2.83-1.46v11.11l-10.89,6.29-2.63-1.52c.1,14.29.08,28.25-.12,40.71l2.75-1.59,10.83,6.25-3,1.54-7.84-4.52-2.8,1.62q0,2.1-.09,4.14l2.88,1.67,3.12-1.8,2-1.15.85-.48v10.39l-2.83,1.64v-7.13l-3.12,1.8-3-1.71c0,1.48-.09,2.93-.14,4.35,0,1.13-.08,2.26-.13,3.4l3.24,1.87,8.06-4.65v-8l2.83-1.45v11.1l-10.89,6.29-3.37-2c-.62,14.7-1.65,29.44-2.83,43.13l6.2-3.58,10.83,6.25-3,1.54-7.84-4.52-6.5,3.75c-.32,3.6-.65,7.12-1,10.54l7.49,4.32,8.06-4.65v-8l2.83-1.45V-225l-10.89,6.29-7.78-4.5c-2.39,23.86-4.87,42.32-5.67,48V-173a13.3,13.3,0,0,0,2.56,2.22v-4.06l10.89-6.29,10.83,6.26-3,1.53-7.84-4.52-8.06,4.65V-169c.65.35,1.38.72,2.18,1.09v-5.85l.84.49,1.8,1,3.23,1.86,3.12-1.8,2-1.14.85-.49v10.06l1.34.35.78-.45v-8l2.83-1.45v10.8l2.51.54V-597.45C925.82-593.48,916-589,908.07-585Zm19.39,358.85-2.83,1.63v-7.13l-3.12,1.8-3.23-1.87v7.14l-2.64-1.59v-10.34l.84.49,1.8,1,3.23,1.86,3.12-1.8,2-1.15.85-.48ZM910.63-557.1l10.89-6.28,10.83,6.25-3,1.54-7.84-4.52-8.06,4.65v8L910.63-546Zm10.88,7.69-3.23-1.87v7.14l-2.64-1.59v-10.34l.84.49,1.8,1,3.23,1.87,3.12-1.8,2-1.15.85-.49v10.4l-2.83,1.64v-7.13Zm-10.88,55.07,10.89-6.29,10.83,6.25-3,1.54-7.84-4.52-8.06,4.65v8l-2.83,1.45Zm10.88,7.68-3.23-1.87v7.14L915.64-483v-10.34l.84.49,1.8,1,3.23,1.87,3.12-1.8,2-1.15.85-.48V-483l-2.83,1.64v-7.13Zm10.9,4.89-10.89,6.29-10.83-6.26,3-1.54,7.84,4.53,8.06-4.65v-8l2.83-1.46Zm0-62.75-10.89,6.29-10.83-6.26,3-1.54,7.84,4.53,8.06-4.66v-8l2.83-1.45Z" transform="translate(-834.52 617.86)"/><path class="cls-2" d="M953.72-605.46v446.37c-3.47-.39-6.68-.82-9.65-1.27v-441C947.65-602.92,950.94-604.3,953.72-605.46Z" transform="translate(-834.52 617.86)"/><path class="cls-2" d="M993.36-612.28v455.36c-3.34,0-6.56-.1-9.64-.18V-614.46C986.51-613.74,989.76-613,993.36-612.28Z" transform="translate(-834.52 617.86)"/><polygon class="cls-2" points="140.09 159.46 140.09 169.85 137.26 171.49 137.26 164.36 134.14 166.16 130.91 164.29 130.91 171.43 128.27 169.84 128.27 159.5 129.11 159.99 130.91 161.02 134.14 162.89 137.26 161.09 139.24 159.94 140.09 159.46"/><polygon class="cls-2" points="145.04 416.72 145.04 427.82 134.15 434.11 123.32 427.85 126.31 426.32 134.15 430.84 142.21 426.19 142.21 418.17 145.04 416.72"/><polygon class="cls-2" points="140.09 416.23 140.09 426.63 137.26 428.26 137.26 421.13 134.14 422.93 130.91 421.06 130.91 428.2 128.27 426.61 128.27 416.27 129.11 416.76 130.91 417.8 134.14 419.66 137.26 417.86 139.24 416.71 140.09 416.23"/><polygon class="cls-2" points="144.98 415.21 141.99 416.75 134.15 412.23 126.09 416.88 126.09 424.9 123.26 426.35 123.26 415.25 134.15 408.96 144.98 415.21"/><polygon class="cls-2" points="140.09 353.48 140.09 363.87 137.26 365.51 137.26 358.38 134.14 360.18 130.91 358.31 130.91 365.45 128.27 363.86 128.27 353.52 129.11 354.01 130.91 355.04 134.14 356.91 137.26 355.11 139.24 353.96 140.09 353.48"/><polygon class="cls-2" points="145.04 353.97 145.04 365.07 134.15 371.36 123.32 365.1 126.31 363.56 134.15 368.09 142.21 363.44 142.21 355.42 145.04 353.97"/><polygon class="cls-2" points="144.98 352.46 141.99 354 134.15 349.48 126.09 354.13 126.09 362.15 123.26 363.6 123.26 352.5 134.15 346.21 144.98 352.46"/><polygon class="cls-2" points="144.98 289.71 141.99 291.25 134.15 286.73 126.09 291.38 126.09 299.4 123.26 300.85 123.26 289.74 134.15 283.46 144.98 289.71"/><polygon class="cls-2" points="140.09 290.72 140.09 301.12 137.26 302.76 137.26 295.63 134.14 297.43 130.91 295.56 130.91 302.7 128.27 301.11 128.27 290.77 129.11 291.26 130.91 292.29 134.14 294.16 137.26 292.36 139.24 291.21 140.09 290.72"/><polygon class="cls-2" points="145.04 291.21 145.04 302.32 134.15 308.61 123.32 302.35 126.31 300.81 134.15 305.34 142.21 300.68 142.21 292.67 145.04 291.21"/><polygon class="cls-2" points="140.09 222.21 140.09 232.61 137.26 234.24 137.26 227.11 134.14 228.91 130.91 227.04 130.91 234.18 128.27 232.59 128.27 222.25 129.11 222.74 130.91 223.78 134.14 225.64 137.26 223.84 139.24 222.69 140.09 222.21"/><polygon class="cls-2" points="145.04 222.7 145.04 233.8 134.15 240.09 123.32 233.83 126.31 232.29 134.15 236.82 142.21 232.17 142.21 224.15 145.04 222.7"/><polygon class="cls-2" points="144.98 221.19 141.99 222.73 134.15 218.21 126.09 222.86 126.09 230.88 123.26 232.33 123.26 221.23 134.15 214.94 144.98 221.19"/><polygon class="cls-2" points="145.04 159.94 145.04 171.05 134.15 177.34 123.32 171.08 126.31 169.54 134.15 174.07 142.21 169.42 142.21 161.4 145.04 159.94"/><polygon class="cls-2" points="144.98 158.44 141.99 159.98 134.15 155.46 126.09 160.11 126.09 168.13 123.26 169.58 123.26 158.48 134.15 152.19 144.98 158.44"/><polygon class="cls-2" points="145.04 97.19 145.04 108.3 134.15 114.59 123.32 108.33 126.31 106.79 134.15 111.32 142.21 106.66 142.21 98.64 145.04 97.19"/><polygon class="cls-2" points="140.09 96.7 140.09 107.1 137.26 108.74 137.26 101.61 134.14 103.41 130.91 101.54 130.91 108.68 128.27 107.09 128.27 96.75 129.11 97.24 130.91 98.27 134.14 100.14 137.26 98.34 139.24 97.19 140.09 96.7"/><polygon class="cls-2" points="144.98 95.69 141.99 97.23 134.15 92.71 126.09 97.36 126.09 105.38 123.26 106.83 123.26 95.72 134.15 89.44 144.98 95.69"/><polygon class="cls-2" points="145.04 34.44 145.04 45.55 134.15 51.84 123.32 45.58 126.31 44.04 134.15 48.57 142.21 43.91 142.21 35.89 145.04 34.44"/><polygon class="cls-2" points="140.09 33.95 140.09 44.35 137.26 45.99 137.26 38.86 134.14 40.66 130.91 38.79 130.91 45.93 128.27 44.33 128.27 34 129.11 34.48 130.91 35.52 134.14 37.39 137.26 35.59 139.24 34.44 140.09 33.95"/><polygon class="cls-2" points="144.98 32.94 141.99 34.48 134.15 29.95 126.09 34.61 126.09 42.63 123.26 44.08 123.26 32.97 134.15 26.69 144.98 32.94"/><path class="cls-2" d="M1017.24-609.34l-2-.11,2.21,1.28,1.89-1.09Zm12,.06c-.67,0-1.36,0-2,.06l-.82,0h-1.53l-7.41,4.29L1008.6-610l-1.13-.12-2.37-.28-1.14-.15v453.63l2.2,0q12.93-.13,24.65-.6V-609.34Zm-11.82,55.95-3.23-1.87v7.14l-2.64-1.59V-560l.84.49,1.8,1,3.23,1.87,3.12-1.8,2-1.15.85-.49v10.4l-2.83,1.64v-7.13Zm0-10.7-8.06,4.65v8l-2.83,1.45V-561l10.89-6.28,10.83,6.25-3,1.54Zm0,73.45-3.23-1.87v7.14l-2.64-1.59v-10.34l.84.49,1.8,1,3.23,1.87,3.12-1.8,2-1.15.85-.48v10.39l-2.83,1.64v-7.13Zm0-10.7-8.06,4.65v8l-2.83,1.45v-11.1l10.89-6.29,10.83,6.25-3,1.54Zm0,73.45-3.23-1.87v7.14l-2.64-1.59v-10.34l.84.49,1.8,1,3.23,1.86,3.12-1.8,2-1.15.85-.48v10.4l-2.83,1.63v-7.13Zm0-10.7-8.06,4.65v8l-2.83,1.45v-11.1l10.89-6.29,10.83,6.25-3,1.54Zm0,79.22-3.23-1.87V-354l-2.64-1.59V-366l.84.49,1.8,1,3.23,1.87,3.12-1.8,2-1.15.85-.49v10.4l-2.83,1.64v-7.13Zm0-10.7-8.06,4.65v8l-2.83,1.45V-367l10.89-6.28,10.83,6.25-3,1.54Zm0,73.45-3.23-1.87v7.14l-2.64-1.59v-10.34l.84.49,1.8,1,3.23,1.87,3.12-1.8,2-1.15.85-.48v10.39l-2.83,1.64v-7.13Zm0-10.7-8.06,4.65v8l-2.83,1.45v-11.1l10.89-6.29,10.83,6.25-3,1.54Zm0,73.45-3.23-1.87v7.14l-2.64-1.59v-10.34l.84.49,1.8,1,3.23,1.86,3.12-1.8,2-1.15.85-.48v10.4l-2.83,1.63v-7.13Zm0-10.7-8.06,4.65v8l-2.83,1.45v-11.1l10.89-6.29,10.83,6.25-3,1.54Zm-10.89,65.77,10.89-6.29,10.83,6.26-3,1.53-7.84-4.52-8.06,4.65v8l-2.83,1.45Zm10.88,7.68-3.23-1.87v7.14l-2.64-1.59v-10.34l.84.49,1.8,1,3.23,1.86,3.12-1.8,2-1.14.85-.49v10.4l-2.83,1.63v-7.13Zm10.9,4.89-10.89,6.29-10.83-6.26,3-1.53,7.84,4.52,8.06-4.65v-8l2.83-1.45Zm0-62.75-10.89,6.29-10.83-6.26,3-1.53,7.84,4.52,8.06-4.65v-8l2.83-1.45Zm0-62.75-10.89,6.29-10.83-6.26,3-1.54,7.84,4.53,8.06-4.65v-8l2.83-1.45Zm0-62.75-10.89,6.29-10.83-6.26,3-1.54,7.84,4.53,8.06-4.66v-8l2.83-1.46Zm0-68.52-10.89,6.29-10.83-6.26,3-1.54,7.84,4.53,8.06-4.65v-8l2.83-1.45Zm0-62.75-10.89,6.29-10.83-6.26,3-1.54,7.84,4.53,8.06-4.65v-8l2.83-1.46Zm0-62.75-10.89,6.29-10.83-6.26,3-1.54,7.84,4.53,8.06-4.66v-8l2.83-1.45Z" transform="translate(-834.52 617.86)"/><path class="cls-2" d="M1049.61-611.54v453.1q-4.69.28-9.64.52V-610.09C1043.42-610.49,1046.64-611,1049.61-611.54Z" transform="translate(-834.52 617.86)"/><path class="cls-2" d="M1089.26-607v445.17q-4.62.54-9.65,1.05v-450l.8.71,1.82.63.8.28Z" transform="translate(-834.52 617.86)"/><polygon class="cls-2" points="235.98 155.55 235.98 165.94 233.15 167.58 233.15 160.45 230.03 162.25 226.8 160.38 226.8 167.52 224.16 165.93 224.16 155.59 225 156.08 226.8 157.11 230.03 158.98 233.15 157.18 235.13 156.03 235.98 155.55"/><polygon class="cls-2" points="240.93 412.81 240.93 423.91 230.04 430.2 219.21 423.94 222.2 422.41 230.04 426.93 238.1 422.28 238.1 414.26 240.93 412.81"/><polygon class="cls-2" points="235.98 412.32 235.98 422.72 233.15 424.35 233.15 417.22 230.03 419.02 226.8 417.15 226.8 424.29 224.16 422.7 224.16 412.36 225 412.85 226.8 413.89 230.03 415.75 233.15 413.95 235.13 412.8 235.98 412.32"/><polygon class="cls-2" points="240.87 411.3 237.88 412.84 230.04 408.32 221.98 412.97 221.98 420.99 219.15 422.44 219.15 411.34 230.04 405.05 240.87 411.3"/><polygon class="cls-2" points="235.98 349.57 235.98 359.96 233.15 361.6 233.15 354.47 230.03 356.27 226.8 354.4 226.8 361.54 224.16 359.95 224.16 349.61 225 350.1 226.8 351.13 230.03 353 233.15 351.2 235.13 350.05 235.98 349.57"/><polygon class="cls-2" points="240.93 350.06 240.93 361.16 230.04 367.45 219.21 361.19 222.2 359.65 230.04 364.18 238.1 359.53 238.1 351.51 240.93 350.06"/><polygon class="cls-2" points="240.87 348.55 237.88 350.09 230.04 345.57 221.98 350.22 221.98 358.24 219.15 359.69 219.15 348.59 230.04 342.3 240.87 348.55"/><polygon class="cls-2" points="240.87 285.8 237.88 287.34 230.04 282.82 221.98 287.47 221.98 295.49 219.15 296.94 219.15 285.83 230.04 279.55 240.87 285.8"/><polygon class="cls-2" points="235.98 286.81 235.98 297.21 233.15 298.85 233.15 291.72 230.03 293.52 226.8 291.65 226.8 298.79 224.16 297.2 224.16 286.86 225 287.35 226.8 288.38 230.03 290.25 233.15 288.45 235.13 287.3 235.98 286.81"/><polygon class="cls-2" points="240.93 287.3 240.93 298.41 230.04 304.7 219.21 298.44 222.2 296.9 230.04 301.43 238.1 296.77 238.1 288.76 240.93 287.3"/><polygon class="cls-2" points="235.98 218.3 235.98 228.7 233.15 230.33 233.15 223.2 230.03 225 226.8 223.13 226.8 230.27 224.16 228.68 224.16 218.34 225 218.83 226.8 219.87 230.03 221.73 233.15 219.93 235.13 218.78 235.98 218.3"/><polygon class="cls-2" points="240.93 218.79 240.93 229.89 230.04 236.18 219.21 229.92 222.2 228.38 230.04 232.91 238.1 228.26 238.1 220.24 240.93 218.79"/><polygon class="cls-2" points="240.87 217.28 237.88 218.82 230.04 214.3 221.98 218.95 221.98 226.97 219.15 228.42 219.15 217.32 230.04 211.03 240.87 217.28"/><polygon class="cls-2" points="240.93 156.03 240.93 167.14 230.04 173.43 219.21 167.17 222.2 165.63 230.04 170.16 238.1 165.51 238.1 157.49 240.93 156.03"/><polygon class="cls-2" points="240.87 154.53 237.88 156.07 230.04 151.55 221.98 156.2 221.98 164.22 219.15 165.67 219.15 154.57 230.04 148.28 240.87 154.53"/><polygon class="cls-2" points="240.93 93.28 240.93 104.39 230.04 110.68 219.21 104.42 222.2 102.88 230.04 107.41 238.1 102.75 238.1 94.73 240.93 93.28"/><polygon class="cls-2" points="235.98 92.79 235.98 103.19 233.15 104.83 233.15 97.7 230.03 99.5 226.8 97.63 226.8 104.77 224.16 103.18 224.16 92.84 225 93.33 226.8 94.36 230.03 96.23 233.15 94.43 235.13 93.28 235.98 92.79"/><polygon class="cls-2" points="240.87 91.78 237.88 93.32 230.04 88.8 221.98 93.45 221.98 101.47 219.15 102.92 219.15 91.81 230.04 85.53 240.87 91.78"/><polygon class="cls-2" points="240.93 30.53 240.93 41.64 230.04 47.93 219.21 41.67 222.2 40.13 230.04 44.66 238.1 40 238.1 31.98 240.93 30.53"/><polygon class="cls-2" points="235.98 30.04 235.98 40.44 233.15 42.08 233.15 34.95 230.03 36.75 226.8 34.88 226.8 42.02 224.16 40.42 224.16 30.09 225 30.57 226.8 31.61 230.03 33.48 233.15 31.68 235.13 30.53 235.98 30.04"/><polygon class="cls-2" points="240.87 29.03 237.88 30.57 230.04 26.04 221.98 30.7 221.98 38.72 219.15 40.17 219.15 29.06 230.04 22.78 240.87 29.03"/><path class="cls-2" d="M1098.89-603.64V-163q4.84-.63,9.13-1.28l-6.51-3.76,3-1.53,7.84,4.52,8.06-4.65v-8l2.83-1.45v11.1l-3.24,1.87q3.1-.54,5.75-1V-593.78C1116.86-597.17,1107.08-600.71,1098.89-603.64Zm2.56,40.67,10.89-6.28,10.83,6.25-3,1.54-7.84-4.52-8.06,4.65v8l-2.83,1.45Zm10.88,7.69-3.23-1.87V-550l-2.64-1.59v-10.34l.84.49,1.8,1,3.23,1.87,3.12-1.8,2-1.15.85-.49v10.4l-2.83,1.64v-7.13Zm-10.88,55.07,10.89-6.29,10.83,6.25-3,1.54-7.84-4.52-8.06,4.65v8l-2.83,1.45Zm10.88,7.68-3.23-1.87v7.14l-2.64-1.59v-10.34l.84.49,1.8,1,3.23,1.87,3.12-1.8,2-1.15.85-.48v10.39l-2.83,1.64v-7.13Zm-10.88,55.07,10.89-6.29,10.83,6.25-3,1.54-7.84-4.52-8.06,4.65v8l-2.83,1.45Zm10.88,7.68-3.23-1.87v7.14l-2.64-1.59v-10.34l.84.49,1.8,1,3.23,1.86,3.12-1.8,2-1.15.85-.48v10.4l-2.83,1.63v-7.13Zm-10.88,60.83,10.89-6.28,10.83,6.25-3,1.54-7.84-4.52-8.06,4.65v8l-2.83,1.45Zm10.88,7.69-3.23-1.87V-356l-2.64-1.59v-10.34l.84.49,1.8,1,3.23,1.87,3.12-1.8,2-1.15.85-.49v10.4l-2.83,1.64v-7.13Zm-10.88,55.07,10.89-6.29,10.83,6.25-3,1.54-7.84-4.52-8.06,4.65v8l-2.83,1.45Zm10.88,7.68-3.23-1.87v7.14l-2.64-1.59v-10.34l.84.49,1.8,1,3.23,1.87,3.12-1.8,2-1.15.85-.48v10.39l-2.83,1.64v-7.13Zm-10.88,55.07,10.89-6.29,10.83,6.25-3,1.54-7.84-4.52-8.06,4.65v8l-2.83,1.45Zm10.88,7.68-3.23-1.87v7.14l-2.64-1.59v-10.34l.84.49,1.8,1,3.23,1.86,3.12-1.8,2-1.15.85-.48v10.4l-2.83,1.63v-7.13Zm6,66.45-2.83,1.63v-7.13l-3.12,1.8-3.23-1.87v7.14l-2.64-1.59v-10.34l.84.49,1.8,1,3.23,1.86,3.12-1.8,2-1.14.85-.49Zm1.9-9.88-7.84-4.52-8.06,4.65v8l-2.83,1.45v-11.1l10.89-6.29,10.83,6.26Zm3-51.68-10.89,6.29-10.83-6.26,3-1.53,7.84,4.52,8.06-4.65v-8l2.83-1.45Zm0-62.75-10.89,6.29-10.83-6.26,3-1.54,7.84,4.53,8.06-4.65v-8l2.83-1.45Zm0-62.75-10.89,6.29-10.83-6.26,3-1.54,7.84,4.53,8.06-4.66v-8l2.83-1.46Zm0-68.52-10.89,6.29-10.83-6.26,3-1.54,7.84,4.53,8.06-4.65v-8l2.83-1.45Zm0-62.75-10.89,6.29-10.83-6.26,3-1.54,7.84,4.53,8.06-4.65v-8l2.83-1.46Zm0-62.75-10.89,6.29-10.83-6.26,3-1.54,7.84,4.53,8.06-4.66v-8l2.83-1.45Z" transform="translate(-834.52 617.86)"/><path class="cls-2" d="M1134.89-224.42c2.65,30.07,5.31,54,5.31,54s-1.78.48-5.31,1.26Z" transform="translate(-834.52 617.86)"/><path class="cls-2" d="M1144.54-586.2v151.86l-9.65-20.31V-590.23C1138.58-588.76,1141.88-587.39,1144.54-586.2Z" transform="translate(-834.52 617.86)"/><path class="cls-2" d="M1184.18-522.33v94.77c-.51.22-1,.43-1.55.63a84.12,84.12,0,0,1-8.09,2.69v-122.5Z" transform="translate(-834.52 617.86)"/><polygon class="cls-2" points="330.91 153.59 330.91 163.98 328.08 165.62 328.08 158.49 324.96 160.29 321.73 158.42 321.73 165.56 319.09 163.97 319.09 153.63 319.93 154.12 321.73 155.15 324.96 157.02 328.08 155.22 330.06 154.07 330.91 153.59"/><polygon class="cls-2" points="335.86 154.07 335.86 165.18 324.97 171.47 314.14 165.21 317.13 163.67 324.97 168.2 333.03 163.55 333.03 155.53 335.86 154.07"/><polygon class="cls-2" points="335.8 152.57 332.81 154.11 324.97 149.59 316.91 154.24 316.91 162.26 314.08 163.71 314.08 152.61 324.97 146.32 335.8 152.57"/><polygon class="cls-2" points="335.86 91.32 335.86 102.43 324.97 108.72 314.14 102.46 317.13 100.92 324.97 105.45 333.03 100.79 333.03 92.77 335.86 91.32"/><polygon class="cls-2" points="330.91 90.83 330.91 101.23 328.08 102.87 328.08 95.74 324.96 97.54 321.73 95.67 321.73 102.81 319.09 101.22 319.09 90.88 319.93 91.37 321.73 92.4 324.96 94.27 328.08 92.47 330.06 91.32 330.91 90.83"/><polygon class="cls-2" points="335.8 89.82 332.81 91.36 324.97 86.84 316.91 91.49 316.91 99.51 314.08 100.96 314.08 89.85 324.97 83.57 335.8 89.82"/><path class="cls-2" d="M1161.58-573.1l-2.09,1.21-10.83-6.26,3-1.54,7.84,4.53.24-.14C1160.39-574.56,1161-573.82,1161.58-573.1Z" transform="translate(-834.52 617.86)"/><path class="cls-2" d="M1156.25-578.82v1l-2.64-1.6V-581C1154.53-580.32,1155.41-579.58,1156.25-578.82Z" transform="translate(-834.52 617.86)"/><path class="cls-2" d="M1151.43-582.58v1.48l-2.83,1.45v-4.61l.28.15C1149.76-583.64,1150.61-583.12,1151.43-582.58Z" transform="translate(-834.52 617.86)"/><path class="cls-2" d="M1210.43-455.87l-11.71-29.65-1.32-.76.85-.44-.51-1.27-.4.21V-489l-2.56-6.48v62.39c.88-.54,1.73-1.1,2.56-1.65v-1.38l8.2-4.74c1.66-1.36,3.1-2.63,4.28-3.71l.67-.62c.85-.8,1.54-1.47,2-2a1.53,1.53,0,0,1,.18-.18l.53-.55.1-.1.11-.11,0,0Z" transform="translate(-834.52 617.86)"/><path class="cls-3" d="M1213.48-448.14s-13.5,14.46-30.85,21.21l-.41.16L1178.6-434c10.13-4.41,23.27-14.66,31.83-21.85Z" transform="translate(-834.52 617.86)"/><path class="cls-3" d="M869.62-434.85l-2.73,7.22-4.41-1.23c-13.5-3.86-28-19.28-28-19.28s1.11-2.85,3-7.71c8.22,6.36,19.61,14.88,25.9,18.31A48.2,48.2,0,0,0,869.62-434.85Z" transform="translate(-834.52 617.86)"/><path class="cls-3" d="M1083-609.23c-13.25,4.37-35.3,10.13-59,10-23.17-.16-45-7.14-58.36-12.5l6.77-6.09a163.3,163.3,0,0,0,51.59,8.68c28.45,0,47.73-8.68,47.73-8.68l8.68,7.72Z" transform="translate(-834.52 617.86)"/></g></svg>