<svg id="Layer_2" data-name="Layer 2" xmlns="http://www.w3.org/2000/svg" viewBox="0 0 379.25 462.29"><defs><style>.cls-1{fill:#dd2c2c;}.cls-2{fill:#e3feff;opacity:0.04;}.cls-3{fill:#fff;}</style></defs><g id="FOnt"><path class="cls-1" d="M744.32-446.82s-13.5,14.46-30.85,21.21-31.82,5.79-31.82,5.79l-2.3-4.84-16-33.74s-2.89,95.47-2.89,144.65S671-169.11,671-169.11s-46.29,12.54-134,13.5S438.65-172,438.65-172s8.67-59.79,10.6-116.68-1.93-167.79-1.93-167.79l-16.07,31.35L428-418.86s-21.22-4.82-34.72-8.68-28-19.28-28-19.28,1.11-2.85,3-7.71c10.36-26.21,44.4-110.78,55.79-120.54,10.56-9,69.43-32.79,69.43-32.79l2.87-2.59,1.19-1.07,5.58-5s.65.25,1.88.65a165.65,165.65,0,0,0,49.71,8c26.33,0,44.81-7.43,47.41-8.54l.32-.14,8.68,7.72,1.82.63.8.28c11.18,3.89,54.94,19.25,65.85,25.12C692.25-576,699-561.57,699-561.57l42.27,107Z" transform="translate(-365.07 617.86)"/><path class="cls-2" d="M368.39-456.22c-1.92,4.86-3,7.71-3,7.71l.31.33.17.17c.69.71,2.1,2.12,4,3.87v-15.79Z" transform="translate(-365.07 617.86)"/><path class="cls-2" d="M388.66-505.83V-431a58.29,58.29,0,0,1-9.64-5.7v-46C382-489.89,385.25-497.78,388.66-505.83Z" transform="translate(-365.07 617.86)"/><path class="cls-2" d="M428.3-579.64v158.58l-.26.51s-3.88-.88-9.38-2.19V-569.4a33.71,33.71,0,0,1,5.52-7.36A34.54,34.54,0,0,1,428.3-579.64Z" transform="translate(-365.07 617.86)"/><polygon class="cls-2" points="44.48 157.76 44.48 168.15 41.65 169.79 41.65 162.66 38.53 164.46 35.3 162.59 35.3 169.73 32.66 168.14 32.66 157.8 33.5 158.29 35.3 159.32 38.53 161.19 41.65 159.39 43.63 158.24 44.48 157.76"/><polygon class="cls-2" points="49.43 158.24 49.43 169.35 38.54 175.64 27.71 169.38 30.7 167.84 38.54 172.37 46.6 167.72 46.6 159.7 49.43 158.24"/><polygon class="cls-2" points="49.37 156.74 46.38 158.28 38.54 153.76 30.48 158.41 30.48 166.43 27.65 167.88 27.65 156.78 38.54 150.49 49.37 156.74"/><polygon class="cls-2" points="49.43 95.49 49.43 106.6 38.54 112.89 27.71 106.63 30.7 105.09 38.54 109.62 46.6 104.96 46.6 96.94 49.43 95.49"/><polygon class="cls-2" points="44.48 95 44.48 105.4 41.65 107.04 41.65 99.91 38.53 101.71 35.3 99.84 35.3 106.98 32.66 105.39 32.66 95.05 33.5 95.54 35.3 96.57 38.53 98.44 41.65 96.64 43.63 95.49 44.48 95"/><polygon class="cls-2" points="49.37 93.99 46.38 95.53 38.54 91.01 30.48 95.66 30.48 103.68 27.65 105.13 27.65 94.02 38.54 87.74 49.37 93.99"/><path class="cls-2" d="M452.35-167.51l-3.23-1.87v2.21c1.81.72,3.91,1.46,6.35,2.21v-4.35Zm-13.44-417.9v143.66l8.41-16.41s.3,8.68.69,22.42l4.35-2.51L463.19-432l-3,1.54L452.36-435l-4.26,2.46c0,.84.06,1.7.08,2.57l.94.54,3.23,1.86,3.12-1.8,2-1.15.85-.48v10.4l-2.83,1.63v-7.13l-3.12,1.8-3.23-1.87V-419l-.66-.4c0,.27,0,.53,0,.8l3.88,2.24,8.06-4.65v-8l2.83-1.45v11.1l-10.89,6.29-3.8-2.19c.35,14.09.7,30.45.94,47.21l2.86-1.65,10.83,6.25-3,1.54-7.84-4.52-2.82,1.63c0,1.4,0,2.8,0,4.2l2.76,1.6,3.12-1.8,2-1.15.85-.49v10.4l-2.83,1.64v-7.13l-3.12,1.8-2.72-1.58c0,2.65.05,5.31.08,8l2.65,1.53,8.06-4.66v-8l2.83-1.46v11.11l-10.89,6.29-2.63-1.52c.1,14.29.08,28.25-.12,40.71l2.75-1.59,10.83,6.25-3,1.54-7.84-4.52-2.8,1.62q0,2.1-.09,4.14l2.88,1.67,3.12-1.8,2-1.15.85-.48v10.39l-2.83,1.64v-7.13l-3.12,1.8-3-1.71c-.05,1.48-.09,2.93-.14,4.35,0,1.13-.08,2.26-.13,3.4l3.24,1.87,8.06-4.65v-8l2.83-1.45v11.1l-10.89,6.29L449-283.78c-.62,14.7-1.65,29.44-2.83,43.13l6.2-3.58L463.19-238l-3,1.54L452.36-241l-6.5,3.75c-.32,3.6-.65,7.12-1,10.54l7.49,4.32,8.06-4.65v-8l2.83-1.45v11.1l-10.89,6.29-7.78-4.5c-2.39,23.86-4.87,42.32-5.67,48v2.19a13.3,13.3,0,0,0,2.56,2.22v-4.06l10.89-6.29,10.83,6.26-3,1.53-7.84-4.52-8.06,4.65v4.15c.65.35,1.38.72,2.18,1.09v-5.85l.84.49,1.8,1,3.23,1.86,3.12-1.8,2-1.14.85-.49v10.06l1.34.35.78-.45v-8l2.83-1.45v10.8l2.51.54V-597.82C456.66-593.85,446.87-589.41,438.91-585.41ZM458.3-226.56l-2.83,1.63v-7.13l-3.12,1.8-3.23-1.87V-225l-2.64-1.59v-10.34l.84.49,1.8,1,3.23,1.86,3.12-1.8,2-1.15.85-.48ZM441.47-557.47l10.89-6.28,10.83,6.25-3,1.54-7.84-4.52-8.06,4.65v8l-2.83,1.45Zm10.88,7.69-3.23-1.87v7.14l-2.64-1.59v-10.34l.84.49,1.8,1,3.23,1.87,3.12-1.8,2-1.15.85-.49v10.4l-2.83,1.64v-7.13Zm-10.88,55.07L452.36-501l10.83,6.25-3,1.54-7.84-4.52-8.06,4.65v8l-2.83,1.45ZM452.35-487l-3.23-1.87v7.14l-2.64-1.59v-10.34l.84.49,1.8,1,3.23,1.87,3.12-1.8,2-1.15.85-.48v10.39l-2.83,1.64v-7.13Zm10.9,4.89-10.89,6.29-10.83-6.26,3-1.54,7.84,4.53,8.06-4.65v-8l2.83-1.46Zm0-62.75-10.89,6.29-10.83-6.26,3-1.54,7.84,4.53,8.06-4.66v-8l2.83-1.45Z" transform="translate(-365.07 617.86)"/><path class="cls-2" d="M484.56-605.83v446.37c-3.47-.39-6.68-.82-9.65-1.27v-441C478.49-603.29,481.78-604.67,484.56-605.83Z" transform="translate(-365.07 617.86)"/><path class="cls-2" d="M524.2-612.65v455.36c-3.34,0-6.56-.1-9.64-.18V-614.83C517.35-614.11,520.6-613.35,524.2-612.65Z" transform="translate(-365.07 617.86)"/><polygon class="cls-2" points="140.38 159.09 140.38 169.48 137.55 171.12 137.55 163.99 134.43 165.79 131.2 163.92 131.2 171.06 128.56 169.47 128.56 159.13 129.4 159.62 131.2 160.65 134.43 162.52 137.55 160.72 139.53 159.57 140.38 159.09"/><polygon class="cls-2" points="145.33 416.35 145.33 427.45 134.44 433.74 123.61 427.48 126.6 425.95 134.44 430.47 142.5 425.82 142.5 417.8 145.33 416.35"/><polygon class="cls-2" points="140.38 415.86 140.38 426.26 137.55 427.89 137.55 420.76 134.43 422.56 131.2 420.69 131.2 427.83 128.56 426.24 128.56 415.9 129.4 416.39 131.2 417.43 134.43 419.29 137.55 417.49 139.53 416.34 140.38 415.86"/><polygon class="cls-2" points="145.27 414.84 142.28 416.38 134.44 411.86 126.38 416.51 126.38 424.53 123.55 425.98 123.55 414.88 134.44 408.59 145.27 414.84"/><polygon class="cls-2" points="140.38 353.11 140.38 363.5 137.55 365.14 137.55 358.01 134.43 359.81 131.2 357.94 131.2 365.08 128.56 363.49 128.56 353.15 129.4 353.64 131.2 354.67 134.43 356.54 137.55 354.74 139.53 353.59 140.38 353.11"/><polygon class="cls-2" points="145.33 353.6 145.33 364.7 134.44 370.99 123.61 364.73 126.6 363.19 134.44 367.72 142.5 363.07 142.5 355.05 145.33 353.6"/><polygon class="cls-2" points="145.27 352.09 142.28 353.63 134.44 349.11 126.38 353.76 126.38 361.78 123.55 363.23 123.55 352.13 134.44 345.84 145.27 352.09"/><polygon class="cls-2" points="145.27 289.34 142.28 290.88 134.44 286.36 126.38 291.01 126.38 299.03 123.55 300.48 123.55 289.37 134.44 283.09 145.27 289.34"/><polygon class="cls-2" points="140.38 290.35 140.38 300.75 137.55 302.39 137.55 295.26 134.43 297.06 131.2 295.19 131.2 302.33 128.56 300.74 128.56 290.4 129.4 290.89 131.2 291.92 134.43 293.79 137.55 291.99 139.53 290.84 140.38 290.35"/><polygon class="cls-2" points="145.33 290.84 145.33 301.95 134.44 308.24 123.61 301.98 126.6 300.44 134.44 304.97 142.5 300.31 142.5 292.3 145.33 290.84"/><polygon class="cls-2" points="140.38 221.84 140.38 232.24 137.55 233.87 137.55 226.74 134.43 228.54 131.2 226.67 131.2 233.81 128.56 232.22 128.56 221.88 129.4 222.37 131.2 223.41 134.43 225.27 137.55 223.47 139.53 222.32 140.38 221.84"/><polygon class="cls-2" points="145.33 222.33 145.33 233.43 134.44 239.72 123.61 233.46 126.6 231.92 134.44 236.45 142.5 231.8 142.5 223.78 145.33 222.33"/><polygon class="cls-2" points="145.27 220.82 142.28 222.36 134.44 217.84 126.38 222.49 126.38 230.51 123.55 231.96 123.55 220.86 134.44 214.57 145.27 220.82"/><polygon class="cls-2" points="145.33 159.57 145.33 170.68 134.44 176.97 123.61 170.71 126.6 169.17 134.44 173.7 142.5 169.05 142.5 161.03 145.33 159.57"/><polygon class="cls-2" points="145.27 158.07 142.28 159.61 134.44 155.09 126.38 159.74 126.38 167.76 123.55 169.21 123.55 158.11 134.44 151.82 145.27 158.07"/><polygon class="cls-2" points="145.33 96.82 145.33 107.93 134.44 114.22 123.61 107.96 126.6 106.42 134.44 110.95 142.5 106.29 142.5 98.27 145.33 96.82"/><polygon class="cls-2" points="140.38 96.33 140.38 106.73 137.55 108.37 137.55 101.24 134.43 103.04 131.2 101.17 131.2 108.31 128.56 106.72 128.56 96.38 129.4 96.87 131.2 97.9 134.43 99.77 137.55 97.97 139.53 96.82 140.38 96.33"/><polygon class="cls-2" points="145.27 95.32 142.28 96.86 134.44 92.34 126.38 96.99 126.38 105.01 123.55 106.46 123.55 95.35 134.44 89.07 145.27 95.32"/><polygon class="cls-2" points="145.33 34.07 145.33 45.18 134.44 51.47 123.61 45.21 126.6 43.67 134.44 48.2 142.5 43.54 142.5 35.52 145.33 34.07"/><polygon class="cls-2" points="140.38 33.58 140.38 43.98 137.55 45.62 137.55 38.49 134.43 40.29 131.2 38.42 131.2 45.56 128.56 43.96 128.56 33.63 129.4 34.11 131.2 35.15 134.43 37.02 137.55 35.22 139.53 34.07 140.38 33.58"/><polygon class="cls-2" points="145.27 32.57 142.28 34.11 134.44 29.58 126.38 34.24 126.38 42.26 123.55 43.71 123.55 32.6 134.44 26.32 145.27 32.57"/><path class="cls-2" d="M548.08-609.71l-2-.11,2.21,1.28,1.89-1.09Zm12,.06c-.67,0-1.36,0-2,.06l-.82,0h-1.53l-7.41,4.29-8.81-5.09-1.13-.12-2.37-.28-1.14-.15v453.63l2.2,0q12.93-.13,24.65-.6V-609.71ZM548.24-553.7,545-555.57v7.14L542.37-550v-10.34l.84.49,1.8,1,3.23,1.87,3.12-1.8,2-1.15.85-.49V-550l-2.83,1.64v-7.13Zm0-10.7-8.06,4.65v8l-2.83,1.45v-11.11l10.89-6.28,10.83,6.25-3,1.54Zm0,73.45L545-492.82v7.14l-2.64-1.59v-10.34l.84.49,1.8,1,3.23,1.87,3.12-1.8,2-1.15.85-.48v10.39l-2.83,1.64v-7.13Zm0-10.7L540.19-497v8l-2.83,1.45v-11.1l10.89-6.29,10.83,6.25-3,1.54Zm0,73.45L545-430.07v7.14l-2.64-1.59v-10.34l.84.49,1.8,1,3.23,1.86,3.12-1.8,2-1.15.85-.48v10.4l-2.83,1.63V-430Zm0-10.7-8.06,4.65v8l-2.83,1.45v-11.1l10.89-6.29,10.83,6.25-3,1.54Zm0,79.22L545-361.55v7.14L542.37-356v-10.34l.84.49,1.8,1,3.23,1.87,3.12-1.8,2-1.15.85-.49V-356l-2.83,1.64v-7.13Zm0-10.7-8.06,4.65v8l-2.83,1.45v-11.11l10.89-6.28,10.83,6.25-3,1.54Zm0,73.45L545-298.8v7.14l-2.64-1.59v-10.34l.84.49,1.8,1,3.23,1.87,3.12-1.8,2-1.15.85-.48v10.39l-2.83,1.64v-7.13Zm0-10.7L540.19-303v8l-2.83,1.45v-11.1l10.89-6.29,10.83,6.25-3,1.54Zm0,73.45L545-236v7.14l-2.64-1.59v-10.34l.84.49,1.8,1,3.23,1.86,3.12-1.8,2-1.15.85-.48v10.4l-2.83,1.63V-236Zm0-10.7-8.06,4.65v8l-2.83,1.45v-11.1l10.89-6.29,10.83,6.25-3,1.54Zm-10.89,65.77,10.89-6.29,10.83,6.26-3,1.53-7.84-4.52-8.06,4.65v8L537.36-168Zm10.88,7.68L545-173.3v7.14l-2.64-1.59v-10.34l.84.49,1.8,1,3.23,1.86,3.12-1.8,2-1.14.85-.49v10.4l-2.83,1.63v-7.13Zm10.9,4.89-10.89,6.29-10.83-6.26,3-1.53,7.84,4.52,8.06-4.65v-8l2.83-1.45Zm0-62.75L548.25-223l-10.83-6.26,3-1.53,7.84,4.52,8.06-4.65v-8l2.83-1.45Zm0-62.75-10.89,6.29L537.42-292l3-1.54,7.84,4.53,8.06-4.65v-8l2.83-1.45Zm0-62.75-10.89,6.29-10.83-6.26,3-1.54,7.84,4.53,8.06-4.66v-8l2.83-1.46Zm0-68.52L548.25-417l-10.83-6.26,3-1.54,7.84,4.53,8.06-4.65v-8l2.83-1.45Zm0-62.75-10.89,6.29L537.42-486l3-1.54,7.84,4.53,8.06-4.65v-8l2.83-1.46Zm0-62.75-10.89,6.29-10.83-6.26,3-1.54,7.84,4.53,8.06-4.66v-8l2.83-1.45Z" transform="translate(-365.07 617.86)"/><path class="cls-2" d="M580.45-611.91v453.1q-4.69.28-9.64.52V-610.46C574.26-610.86,577.48-611.35,580.45-611.91Z" transform="translate(-365.07 617.86)"/><path class="cls-2" d="M620.1-607.41v445.17q-4.62.54-9.65,1.05v-450l.8.71,1.82.63.8.28Z" transform="translate(-365.07 617.86)"/><polygon class="cls-2" points="236.28 155.18 236.28 165.57 233.44 167.21 233.44 160.08 230.32 161.88 227.09 160.01 227.09 167.15 224.46 165.56 224.46 155.22 225.29 155.71 227.09 156.74 230.32 158.61 233.44 156.81 235.43 155.66 236.28 155.18"/><polygon class="cls-2" points="241.22 412.44 241.22 423.54 230.34 429.83 219.5 423.57 222.5 422.04 230.34 426.56 238.4 421.91 238.4 413.89 241.22 412.44"/><polygon class="cls-2" points="236.28 411.95 236.28 422.35 233.44 423.98 233.44 416.85 230.32 418.65 227.09 416.78 227.09 423.92 224.46 422.33 224.46 411.99 225.29 412.48 227.09 413.52 230.32 415.38 233.44 413.58 235.43 412.43 236.28 411.95"/><polygon class="cls-2" points="241.16 410.93 238.18 412.47 230.34 407.95 222.28 412.6 222.28 420.62 219.44 422.07 219.44 410.97 230.34 404.68 241.16 410.93"/><polygon class="cls-2" points="236.28 349.2 236.28 359.59 233.44 361.23 233.44 354.1 230.32 355.9 227.09 354.03 227.09 361.17 224.46 359.58 224.46 349.24 225.29 349.73 227.09 350.76 230.32 352.63 233.44 350.83 235.43 349.68 236.28 349.2"/><polygon class="cls-2" points="241.22 349.69 241.22 360.79 230.34 367.08 219.5 360.82 222.5 359.28 230.34 363.81 238.4 359.16 238.4 351.14 241.22 349.69"/><polygon class="cls-2" points="241.16 348.18 238.18 349.72 230.34 345.2 222.28 349.85 222.28 357.87 219.44 359.32 219.44 348.22 230.34 341.93 241.16 348.18"/><polygon class="cls-2" points="241.16 285.43 238.18 286.97 230.34 282.45 222.28 287.1 222.28 295.12 219.44 296.57 219.44 285.46 230.34 279.18 241.16 285.43"/><polygon class="cls-2" points="236.28 286.44 236.28 296.84 233.44 298.48 233.44 291.35 230.32 293.15 227.09 291.28 227.09 298.42 224.46 296.83 224.46 286.49 225.29 286.98 227.09 288.01 230.32 289.88 233.44 288.08 235.43 286.93 236.28 286.44"/><polygon class="cls-2" points="241.22 286.93 241.22 298.04 230.34 304.33 219.5 298.07 222.5 296.53 230.34 301.06 238.4 296.4 238.4 288.39 241.22 286.93"/><polygon class="cls-2" points="236.28 217.93 236.28 228.33 233.44 229.96 233.44 222.83 230.32 224.63 227.09 222.76 227.09 229.9 224.46 228.31 224.46 217.97 225.29 218.46 227.09 219.5 230.32 221.36 233.44 219.56 235.43 218.41 236.28 217.93"/><polygon class="cls-2" points="241.22 218.42 241.22 229.52 230.34 235.81 219.5 229.55 222.5 228.01 230.34 232.54 238.4 227.89 238.4 219.87 241.22 218.42"/><polygon class="cls-2" points="241.16 216.91 238.18 218.45 230.34 213.93 222.28 218.58 222.28 226.6 219.44 228.05 219.44 216.95 230.34 210.66 241.16 216.91"/><polygon class="cls-2" points="241.22 155.66 241.22 166.77 230.34 173.06 219.5 166.8 222.5 165.26 230.34 169.79 238.4 165.14 238.4 157.12 241.22 155.66"/><polygon class="cls-2" points="241.16 154.16 238.18 155.7 230.34 151.18 222.28 155.83 222.28 163.85 219.44 165.3 219.44 154.2 230.34 147.91 241.16 154.16"/><polygon class="cls-2" points="241.22 92.91 241.22 104.02 230.34 110.31 219.5 104.05 222.5 102.51 230.34 107.04 238.4 102.38 238.4 94.36 241.22 92.91"/><polygon class="cls-2" points="236.28 92.42 236.28 102.82 233.44 104.46 233.44 97.33 230.32 99.13 227.09 97.26 227.09 104.4 224.46 102.81 224.46 92.47 225.29 92.96 227.09 93.99 230.32 95.86 233.44 94.06 235.43 92.91 236.28 92.42"/><polygon class="cls-2" points="241.16 91.41 238.18 92.95 230.34 88.43 222.28 93.08 222.28 101.1 219.44 102.55 219.44 91.44 230.34 85.16 241.16 91.41"/><polygon class="cls-2" points="241.22 30.16 241.22 41.27 230.34 47.56 219.5 41.3 222.5 39.76 230.34 44.29 238.4 39.63 238.4 31.61 241.22 30.16"/><polygon class="cls-2" points="236.28 29.67 236.28 40.07 233.44 41.71 233.44 34.58 230.32 36.38 227.09 34.51 227.09 41.65 224.46 40.05 224.46 29.72 225.29 30.2 227.09 31.24 230.32 33.11 233.44 31.31 235.43 30.16 236.28 29.67"/><polygon class="cls-2" points="241.16 28.66 238.18 30.2 230.34 25.67 222.28 30.33 222.28 38.35 219.44 39.8 219.44 28.69 230.34 22.41 241.16 28.66"/><path class="cls-2" d="M629.73-604v440.59q4.85-.63,9.13-1.28l-6.51-3.76,3-1.53,7.84,4.52,8.06-4.65v-8l2.83-1.45v11.1l-3.24,1.87q3.1-.54,5.75-1V-594.15C647.7-597.54,637.92-601.08,629.73-604Zm2.56,40.67,10.89-6.28L654-563.37l-3,1.54-7.84-4.52-8.06,4.65v8l-2.83,1.45Zm10.88,7.69-3.23-1.87v7.14L637.3-552v-10.34l.84.49,1.8,1,3.23,1.87,3.12-1.8,2-1.15.85-.49V-552l-2.83,1.64v-7.13Zm-10.88,55.07,10.89-6.29L654-500.62l-3,1.54-7.84-4.52-8.06,4.65v8l-2.83,1.45Zm10.88,7.68-3.23-1.87v7.14l-2.64-1.59v-10.34l.84.49,1.8,1,3.23,1.87,3.12-1.8,2-1.15.85-.48v10.39l-2.83,1.64v-7.13Zm-10.88,55.07,10.89-6.29L654-437.87l-3,1.54-7.84-4.52-8.06,4.65v8l-2.83,1.45Zm10.88,7.68L639.94-432v7.14l-2.64-1.59v-10.34l.84.49,1.8,1,3.23,1.86,3.12-1.8,2-1.15.85-.48v10.4l-2.83,1.63v-7.13Zm-10.88,60.83,10.89-6.28L654-369.35l-3,1.54-7.84-4.52-8.06,4.65v8l-2.83,1.45Zm10.88,7.69-3.23-1.87v7.14l-2.64-1.59v-10.34l.84.49,1.8,1,3.23,1.87,3.12-1.8,2-1.15.85-.49v10.4l-2.83,1.64v-7.13Zm-10.88,55.07,10.89-6.29L654-306.6l-3,1.54-7.84-4.52-8.06,4.65v8l-2.83,1.45Zm10.88,7.68-3.23-1.87v7.14l-2.64-1.59v-10.34l.84.49,1.8,1,3.23,1.87,3.12-1.8,2-1.15.85-.48v10.39l-2.83,1.64v-7.13Zm-10.88,55.07,10.89-6.29L654-243.85l-3,1.54-7.84-4.52-8.06,4.65v8l-2.83,1.45Zm10.88,7.68L639.94-238v7.14l-2.64-1.59v-10.34l.84.49,1.8,1,3.23,1.86,3.12-1.8,2-1.15.85-.48v10.4l-2.83,1.63v-7.13Zm6,66.45L646.29-168v-7.13l-3.12,1.8-3.23-1.87v7.14l-2.64-1.59V-180l.84.49,1.8,1,3.23,1.86,3.12-1.8,2-1.14.85-.49Zm1.9-9.88-7.84-4.52-8.06,4.65v8L632.29-170v-11.1l10.89-6.29L654-181.09Zm3.05-51.68-10.89,6.29-10.83-6.26,3-1.53,7.84,4.52,8.06-4.65v-8l2.83-1.45Zm0-62.75-10.89,6.29L632.35-294l3-1.54,7.84,4.53,8.06-4.65v-8l2.83-1.45Zm0-62.75-10.89,6.29-10.83-6.26,3-1.54,7.84,4.53,8.06-4.66v-8l2.83-1.46Zm0-68.52L643.18-419l-10.83-6.26,3-1.54,7.84,4.53,8.06-4.65v-8l2.83-1.45Zm0-62.75-10.89,6.29L632.35-488l3-1.54,7.84,4.53,8.06-4.65v-8l2.83-1.46Zm0-62.75-10.89,6.29-10.83-6.26,3-1.54,7.84,4.53,8.06-4.66v-8l2.83-1.45Z" transform="translate(-365.07 617.86)"/><path class="cls-2" d="M665.73-224.79c2.65,30.07,5.31,54,5.31,54s-1.78.48-5.31,1.26Z" transform="translate(-365.07 617.86)"/><path class="cls-2" d="M675.38-586.57v151.86L665.73-455V-590.6C669.42-589.13,672.72-587.76,675.38-586.57Z" transform="translate(-365.07 617.86)"/><path class="cls-2" d="M715-522.7v94.77c-.51.22-1,.43-1.55.63a84.12,84.12,0,0,1-8.09,2.69v-122.5Z" transform="translate(-365.07 617.86)"/><polygon class="cls-2" points="331.2 153.22 331.2 163.61 328.37 165.25 328.37 158.12 325.25 159.92 322.02 158.05 322.02 165.19 319.38 163.6 319.38 153.26 320.22 153.75 322.02 154.78 325.25 156.65 328.37 154.85 330.35 153.7 331.2 153.22"/><polygon class="cls-2" points="336.15 153.7 336.15 164.81 325.26 171.1 314.43 164.84 317.42 163.3 325.26 167.83 333.32 163.18 333.32 155.16 336.15 153.7"/><polygon class="cls-2" points="336.09 152.2 333.1 153.74 325.26 149.22 317.2 153.87 317.2 161.89 314.37 163.34 314.37 152.24 325.26 145.95 336.09 152.2"/><polygon class="cls-2" points="336.15 90.95 336.15 102.06 325.26 108.35 314.43 102.09 317.42 100.55 325.26 105.08 333.32 100.42 333.32 92.4 336.15 90.95"/><polygon class="cls-2" points="331.2 90.46 331.2 100.86 328.37 102.5 328.37 95.37 325.25 97.17 322.02 95.3 322.02 102.44 319.38 100.85 319.38 90.51 320.22 91 322.02 92.03 325.25 93.9 328.37 92.1 330.35 90.95 331.2 90.46"/><polygon class="cls-2" points="336.09 89.45 333.1 90.99 325.26 86.47 317.2 91.12 317.2 99.14 314.37 100.59 314.37 89.48 325.26 83.2 336.09 89.45"/><path class="cls-2" d="M692.42-573.47l-2.09,1.21-10.83-6.26,3-1.54,7.84,4.53.24-.14C691.23-574.93,691.85-574.19,692.42-573.47Z" transform="translate(-365.07 617.86)"/><path class="cls-2" d="M687.09-579.19v1l-2.64-1.6v-1.62C685.37-580.69,686.25-579.95,687.09-579.19Z" transform="translate(-365.07 617.86)"/><path class="cls-2" d="M682.27-582.95v1.48L679.44-580v-4.61l.28.15C680.6-584,681.45-583.49,682.27-582.95Z" transform="translate(-365.07 617.86)"/><path class="cls-2" d="M741.27-456.24l-11.71-29.65-1.32-.76.85-.44-.51-1.27-.4.21v-1.23l-2.56-6.48v62.39c.88-.54,1.73-1.1,2.56-1.65v-1.38l8.2-4.74c1.66-1.36,3.1-2.63,4.28-3.71l.67-.62c.85-.8,1.54-1.47,2-2a1.53,1.53,0,0,1,.18-.18l.53-.55.1-.1.11-.11,0,0Z" transform="translate(-365.07 617.86)"/><path class="cls-3" d="M744-448.14s-13.5,14.46-30.85,21.21l-.41.16L709.15-434c10.13-4.41,23.27-14.66,31.83-21.85Z" transform="translate(-365.07 617.86)"/><path class="cls-3" d="M400.17-434.85l-2.73,7.22L393-428.86c-13.5-3.86-28-19.28-28-19.28s1.11-2.85,3-7.71c8.22,6.36,19.61,14.88,25.9,18.31A48.2,48.2,0,0,0,400.17-434.85Z" transform="translate(-365.07 617.86)"/><path class="cls-3" d="M613.58-609.23c-13.25,4.37-35.3,10.13-59,10-23.17-.16-45-7.14-58.36-12.5l6.77-6.09a163.3,163.3,0,0,0,51.59,8.68c28.45,0,47.73-8.68,47.73-8.68l8.68,7.72Z" transform="translate(-365.07 617.86)"/><path class="cls-3" d="M612.89-605.81c0,23.09-41.17,46.41-53.92,54.94a7.91,7.91,0,0,1-7.84.54c-13.71-6.58-52.93-32.75-53.74-62,0-.19,0-.37,0-.55l5.58-5s.65.25,1.88.65c.12,27.08,50,55.92,50,55.92s48.43-26.68,47.46-46.93c-.15-3.22-.26-6.41-.32-9.5l.32-.14,8.68,7.72,1.82.63C612.85-608.28,612.89-607,612.89-605.81Z" transform="translate(-365.07 617.86)"/></g></svg>